<svg aria-hidden="true" style="position: absolute; width: 0; height: 0; overflow: hidden;" version="1.1" xmlns="http://www.w3.org/2000/svg" xmlns:xlink="http://www.w3.org/1999/xlink">
<defs>
<symbol id="icon-menu-burger" viewBox="0 0 32 32">
<path d="M30 14h-28c-1.105 0-2 0.895-2 2s0.895 2 2 2h28c1.105 0 2-0.895 2-2s-0.895-2-2-2z"></path>
<path d="M2 8.667h28c1.105 0 2-0.895 2-2s-0.895-2-2-2h-28c-1.105 0-2 0.895-2 2s0.895 2 2 2z"></path>
<path d="M30 23.333h-28c-1.105 0-2 0.895-2 2s0.895 2 2 2h28c1.105 0 2-0.895 2-2s-0.895-2-2-2z"></path>
</symbol>
</defs>
</svg>
