<svg aria-hidden="true" style="position: absolute; width: 0; height: 0; overflow: hidden;" version="1.1" xmlns="http://www.w3.org/2000/svg" xmlns:xlink="http://www.w3.org/1999/xlink">
<defs>

<symbol id="icon-instagram" viewBox="0 0 32 32">
<path fill="#fff" style="fill: var(--color1, #fff)" d="M16.004 7.796c-4.54 0-8.203 3.663-8.203 8.204s3.662 8.204 8.203 8.204c4.54 0 8.203-3.663 8.203-8.204s-3.662-8.204-8.203-8.204zM16.004 21.334c-2.934 0-5.333-2.392-5.333-5.334s2.392-5.334 5.333-5.334c2.941 0 5.333 2.392 5.333 5.334s-2.399 5.334-5.333 5.334zM26.455 7.46c0 1.064-0.857 1.914-1.913 1.914-1.064 0-1.913-0.857-1.913-1.914s0.857-1.914 1.913-1.914c1.056 0 1.913 0.857 1.913 1.914zM31.888 9.402c-0.121-2.563-0.707-4.834-2.584-6.705-1.87-1.871-4.141-2.456-6.703-2.585-2.641-0.15-10.558-0.15-13.2 0-2.556 0.121-4.826 0.707-6.703 2.578s-2.456 4.141-2.584 6.705c-0.15 2.642-0.15 10.561 0 13.203 0.121 2.563 0.707 4.834 2.584 6.705s4.141 2.456 6.703 2.585c2.641 0.15 10.558 0.15 13.2 0 2.563-0.121 4.833-0.707 6.703-2.585 1.87-1.871 2.456-4.142 2.584-6.705 0.15-2.642 0.15-10.554 0-13.196zM28.475 25.433c-0.557 1.4-1.635 2.478-3.041 3.042-2.106 0.835-7.103 0.643-9.43 0.643s-7.332 0.186-9.43-0.643c-1.399-0.557-2.477-1.635-3.041-3.042-0.835-2.106-0.643-7.105-0.643-9.433s-0.186-7.333 0.643-9.433c0.557-1.4 1.635-2.478 3.041-3.042 2.106-0.835 7.103-0.643 9.43-0.643s7.332-0.186 9.431 0.643c1.399 0.557 2.477 1.635 3.041 3.042 0.835 2.106 0.642 7.105 0.642 9.433s0.193 7.333-0.642 9.433z"></path>
</symbol>

<symbol id="icon-twitter" viewBox="0 0 32 32">
<path fill="#fff" style="fill: var(--color1, #fff)" d="M28.711 7.975c0.020 0.35 0.020 0.7 0.020 1.050 0 10.675-6.599 22.975-18.66 22.975-3.716 0-7.168-1.325-10.071-3.625 0.528 0.075 1.036 0.1 1.584 0.1 3.066 0 5.888-1.275 8.142-3.45-2.883-0.075-5.3-2.4-6.132-5.6 0.406 0.075 0.812 0.125 1.239 0.125 0.589 0 1.178-0.1 1.726-0.275-3.005-0.75-5.259-4-5.259-7.925v-0.1c0.873 0.6 1.888 0.975 2.964 1.025-1.766-1.45-2.924-3.925-2.924-6.725 0-1.5 0.325-2.875 0.893-4.075 3.228 4.9 8.081 8.1 13.523 8.45-0.101-0.6-0.162-1.225-0.162-1.85 0-4.45 2.924-8.075 6.558-8.075 1.888 0 3.594 0.975 4.792 2.55 1.482-0.35 2.904-1.025 4.163-1.95-0.487 1.875-1.523 3.45-2.883 4.45 1.32-0.175 2.599-0.625 3.777-1.25-0.893 1.6-2.010 3.025-3.289 4.175z"></path>
</symbol>

<symbol id="icon-menu-burger" viewBox="0 0 32 32">
<path d="M30 14h-28c-1.105 0-2 0.895-2 2s0.895 2 2 2h28c1.105 0 2-0.895 2-2s-0.895-2-2-2z"></path>
<path d="M2 8.667h28c1.105 0 2-0.895 2-2s-0.895-2-2-2h-28c-1.105 0-2 0.895-2 2s0.895 2 2 2z"></path>
<path d="M30 23.333h-28c-1.105 0-2 0.895-2 2s0.895 2 2 2h28c1.105 0 2-0.895 2-2s-0.895-2-2-2z"></path>

<symbol id="icon-BARATIE" viewBox="0 0 180 32">
<path d="M15.751 15.239c3.698 0.284 6.414 1.138 8.149 2.56s2.603 3.1 2.603 5.035c0 2.645-1.038 4.693-3.115 6.144-2.076 1.422-4.964 2.133-8.661 2.133-0.825 0-1.522-0.014-2.091-0.043-1.877-0.057-3.712-0.085-5.504-0.085-2.93 0-5.12 0.043-6.571 0.128v-0.853c0.939-0.057 1.621-0.171 2.048-0.341 0.455-0.171 0.754-0.498 0.896-0.981 0.171-0.484 0.256-1.266 0.256-2.347v-21.163c0-1.081-0.085-1.863-0.256-2.347-0.142-0.484-0.441-0.811-0.896-0.981-0.427-0.171-1.109-0.284-2.048-0.341v-0.853c1.451 0.085 3.612 0.128 6.485 0.128l4.736-0.043c0.569-0.028 1.223-0.043 1.963-0.043 3.413 0 6.016 0.612 7.808 1.835 1.82 1.223 2.731 2.844 2.731 4.864 0 1.65-0.725 3.186-2.176 4.608-1.422 1.422-3.541 2.389-6.357 2.901v0.085zM13.191 1.756c-0.768 0-1.337 0.1-1.707 0.299-0.341 0.199-0.583 0.555-0.725 1.067s-0.213 1.28-0.213 2.304v9.643h1.835c1.849 0 3.143-0.626 3.883-1.877 0.74-1.28 1.109-2.972 1.109-5.077 0-2.133-0.341-3.726-1.024-4.779-0.654-1.052-1.707-1.579-3.157-1.579zM13.49 30.13c3.954 0 5.931-2.489 5.931-7.467 0-2.247-0.569-3.954-1.707-5.12s-2.93-1.749-5.376-1.749h-1.792v10.795c0 1.024 0.071 1.778 0.213 2.261s0.412 0.825 0.811 1.024c0.427 0.171 1.067 0.256 1.92 0.256zM53.264 27.527c0.37 0.939 0.796 1.621 1.28 2.048s0.953 0.654 1.408 0.683v0.853c-1.707-0.085-3.868-0.128-6.485-0.128-2.901 0-5.063 0.043-6.485 0.128v-0.853c1.081-0.057 1.849-0.185 2.304-0.384 0.455-0.228 0.683-0.612 0.683-1.152 0-0.512-0.171-1.195-0.512-2.048l-2.56-6.997h-9.301l-1.109 2.944c-0.796 2.048-1.195 3.627-1.195 4.736 0 1.052 0.313 1.792 0.939 2.219 0.654 0.398 1.607 0.626 2.859 0.683v0.853c-1.934-0.085-3.698-0.128-5.291-0.128-1.308 0-2.389 0.043-3.243 0.128v-0.853c1.394-0.256 2.617-1.749 3.669-4.48l9.728-24.96c0.313 0.028 0.811 0.043 1.493 0.043s1.166-0.014 1.451-0.043l10.368 26.709zM42.597 18.823l-4.224-11.52-4.437 11.52h8.661zM85.198 29.234c-0.768 0.882-1.593 1.508-2.475 1.877-0.882 0.398-1.948 0.597-3.2 0.597-1.65 0-2.958-0.341-3.925-1.024-0.939-0.711-1.55-1.906-1.835-3.584l-0.768-4.267c-0.37-2.076-0.825-3.598-1.365-4.565-0.512-0.996-1.38-1.493-2.603-1.493h-2.773v9.813c0 1.081 0.071 1.863 0.213 2.347 0.171 0.484 0.469 0.811 0.896 0.981s1.124 0.284 2.091 0.341v0.853c-1.536-0.085-3.684-0.128-6.443-0.128-3.044 0-5.291 0.043-6.741 0.128v-0.853c0.939-0.057 1.621-0.171 2.048-0.341 0.455-0.171 0.754-0.498 0.896-0.981 0.171-0.484 0.256-1.266 0.256-2.347v-21.163c0-1.081-0.085-1.863-0.256-2.347-0.142-0.484-0.441-0.811-0.896-0.981-0.427-0.171-1.109-0.284-2.048-0.341v-0.853c1.451 0.085 3.612 0.128 6.485 0.128l4.736-0.043c0.569-0.028 1.223-0.043 1.963-0.043 3.925 0 6.869 0.64 8.832 1.92 1.991 1.28 2.987 3.115 2.987 5.504 0 2.020-0.74 3.797-2.219 5.333s-3.925 2.503-7.339 2.901c2.56 0.228 4.466 0.782 5.717 1.664s2.062 2.204 2.432 3.968l0.981 4.395c0.228 1.138 0.484 1.934 0.768 2.389 0.313 0.455 0.74 0.683 1.28 0.683 0.341-0.028 0.626-0.114 0.853-0.256 0.256-0.142 0.54-0.384 0.853-0.725l0.597 0.512zM68.899 1.756c-0.768 0-1.337 0.1-1.707 0.299-0.341 0.199-0.583 0.555-0.725 1.067s-0.213 1.28-0.213 2.304v10.496h1.835c2.332 0 3.925-0.612 4.779-1.835 0.882-1.252 1.323-3.001 1.323-5.248 0-2.332-0.412-4.096-1.237-5.291s-2.176-1.792-4.053-1.792zM110.43 27.527c0.37 0.939 0.796 1.621 1.28 2.048s0.953 0.654 1.408 0.683v0.853c-1.707-0.085-3.868-0.128-6.485-0.128-2.901 0-5.063 0.043-6.485 0.128v-0.853c1.081-0.057 1.849-0.185 2.304-0.384 0.455-0.228 0.683-0.612 0.683-1.152 0-0.512-0.171-1.195-0.512-2.048l-2.56-6.997h-9.301l-1.109 2.944c-0.796 2.048-1.194 3.627-1.194 4.736 0 1.052 0.313 1.792 0.938 2.219 0.654 0.398 1.607 0.626 2.859 0.683v0.853c-1.934-0.085-3.698-0.128-5.29-0.128-1.308 0-2.389 0.043-3.243 0.128v-0.853c1.394-0.256 2.617-1.749 3.669-4.48l9.728-24.96c0.313 0.028 0.811 0.043 1.493 0.043s1.166-0.014 1.451-0.043l10.368 26.709zM99.764 18.823l-4.224-11.52-4.437 11.52h8.661zM137.295 0.903c-0.199 2.702-0.299 5.12-0.299 7.253 0 1.337 0.043 2.418 0.128 3.243h-0.981c-0.683-3.499-1.621-5.959-2.816-7.381-1.166-1.422-2.773-2.133-4.821-2.133h-0.981v24.363c0 1.195 0.114 2.062 0.341 2.603 0.256 0.54 0.683 0.91 1.28 1.109 0.626 0.171 1.607 0.27 2.944 0.299v0.853c-3.584-0.085-6.286-0.128-8.107-0.128-1.792 0-4.395 0.043-7.808 0.128v-0.853c1.337-0.028 2.304-0.128 2.901-0.299 0.626-0.199 1.052-0.569 1.28-1.109 0.256-0.54 0.384-1.408 0.384-2.603v-24.363h-0.939c-1.365 0-2.532 0.299-3.499 0.896-0.939 0.597-1.749 1.593-2.432 2.987-0.683 1.365-1.266 3.243-1.749 5.632h-0.981c0.085-0.825 0.128-1.906 0.128-3.243 0-2.133-0.1-4.551-0.299-7.253 2.588 0.085 6.983 0.128 13.184 0.128s10.581-0.043 13.141-0.128zM153.037 1.756c-0.967 0.057-1.664 0.171-2.091 0.341s-0.725 0.498-0.896 0.981c-0.142 0.484-0.213 1.266-0.213 2.347v21.163c0 1.081 0.071 1.863 0.213 2.347 0.171 0.484 0.469 0.811 0.896 0.981s1.124 0.284 2.091 0.341v0.853c-1.536-0.085-3.684-0.128-6.443-0.128-3.044 0-5.291 0.043-6.741 0.128v-0.853c0.939-0.057 1.621-0.171 2.048-0.341 0.455-0.171 0.754-0.498 0.896-0.981 0.171-0.484 0.256-1.266 0.256-2.347v-21.163c0-1.081-0.085-1.863-0.256-2.347-0.142-0.484-0.441-0.811-0.896-0.981-0.427-0.171-1.109-0.284-2.048-0.341v-0.853c1.451 0.085 3.698 0.128 6.741 0.128 2.759 0 4.907-0.043 6.443-0.128v0.853zM179.276 24.626c0 2.617 0.1 4.779 0.299 6.485-1.934-0.085-5.191-0.128-9.771-0.128-6.201 0-10.837 0.043-13.909 0.128v-0.853c0.939-0.057 1.621-0.171 2.048-0.341 0.455-0.171 0.754-0.498 0.896-0.981 0.171-0.484 0.256-1.266 0.256-2.347v-21.163c0-1.081-0.085-1.863-0.256-2.347-0.142-0.484-0.441-0.811-0.896-0.981-0.427-0.171-1.109-0.284-2.048-0.341v-0.853c3.072 0.085 7.708 0.128 13.909 0.128 4.181 0 7.154-0.043 8.917-0.128-0.199 2.361-0.299 4.466-0.299 6.315 0 1.252 0.043 2.219 0.128 2.901h-0.981c-0.427-3.044-1.195-5.177-2.304-6.4s-2.674-1.835-4.693-1.835h-1.749c-0.882 0-1.522 0.071-1.92 0.213s-0.668 0.427-0.811 0.853c-0.142 0.398-0.213 1.052-0.213 1.963v10.581h1.365c1.508 0 2.645-0.555 3.413-1.664 0.796-1.109 1.351-2.432 1.664-3.968h0.981c-0.085 1.195-0.128 2.532-0.128 4.011v2.048c0 1.451 0.085 3.47 0.256 6.059h-0.981c-0.597-3.755-2.332-5.632-5.205-5.632h-1.365v10.752c0 0.91 0.071 1.579 0.213 2.005 0.142 0.398 0.412 0.668 0.811 0.811s1.038 0.213 1.92 0.213h2.091c2.020 0 3.641-0.683 4.864-2.048 1.252-1.394 2.133-3.74 2.645-7.040h0.981c-0.085 0.939-0.128 2.133-0.128 3.584z"></path>
</symbol>

<symbol id="icon-menu-burger" viewBox="0 0 32 32">
<path d="M30 14h-28c-1.105 0-2 0.895-2 2s0.895 2 2 2h28c1.105 0 2-0.895 2-2s-0.895-2-2-2z"></path>
<path d="M2 8.667h28c1.105 0 2-0.895 2-2s-0.895-2-2-2h-28c-1.105 0-2 0.895-2 2s0.895 2 2 2z"></path>
<path d="M30 23.333h-28c-1.105 0-2 0.895-2 2s0.895 2 2 2h28c1.105 0 2-0.895 2-2s-0.895-2-2-2z"></path>
</symbol>

</symbol>
</defs>
</svg>
