<svg width="28" height="28" viewBox="0 0 28 28" xmlns="http://www.w3.org/2000/svg">
<path d="M25.1219 6.9781C25.1397 7.28434 25.1397 7.59064 25.1397 7.89687C25.1397 17.2375 19.3656 28 8.81221 28C5.56092 28 2.54063 26.8406 0 24.8282C0.461947 24.8937 0.906066 24.9156 1.38579 24.9156C4.06849 24.9156 6.53808 23.8 8.51017 21.8969C5.98732 21.8313 3.87309 19.7969 3.14465 16.9969C3.50001 17.0625 3.85532 17.1062 4.22845 17.1062C4.74367 17.1062 5.25893 17.0187 5.7386 16.8656C3.10916 16.2093 1.13701 13.3656 1.13701 9.93124V9.84377C1.90095 10.3688 2.78935 10.6969 3.73091 10.7406C2.18521 9.47182 1.17256 7.30622 1.17256 4.8562C1.17256 3.54373 1.45677 2.3406 1.95427 1.29059C4.77916 5.57809 9.02539 8.37804 13.7868 8.68435C13.698 8.15934 13.6446 7.61252 13.6446 7.06563C13.6446 3.17184 16.203 0 19.3832 0C21.0355 0 22.5279 0.853123 23.5761 2.23125C24.8731 1.92501 26.1167 1.33436 27.2183 0.525004C26.7918 2.16567 25.8858 3.54379 24.6954 4.41873C25.8503 4.26568 26.9696 3.87184 28 3.32502C27.2184 4.72497 26.2412 5.97179 25.1219 6.9781V6.9781Z" fill="white"/>
</svg>
