<svg width="203" height="36" viewBox="0 0 203 36" xmlns="http://www.w3.org/2000/svg">
<path d="M17.72 17.144C21.88 17.464 24.936 18.424 26.888 20.024C28.84 21.624 29.816 23.512 29.816 25.688C29.816 28.664 28.648 30.968 26.312 32.6C23.976 34.2 20.728 35 16.568 35C15.64 35 14.856 34.984 14.216 34.952C12.104 34.888 10.04 34.856 8.024 34.856C4.728 34.856 2.264 34.904 0.632 35V34.04C1.688 33.976 2.456 33.848 2.936 33.656C3.448 33.464 3.784 33.096 3.944 32.552C4.136 32.008 4.232 31.128 4.232 29.912V6.104C4.232 4.888 4.136 4.008 3.944 3.464C3.784 2.92 3.448 2.552 2.936 2.36C2.456 2.168 1.688 2.04 0.632 1.976V1.016C2.264 1.112 4.696 1.16 7.928 1.16L13.256 1.112C13.896 1.08 14.632 1.064 15.464 1.064C19.304 1.064 22.232 1.752 24.248 3.128C26.296 4.504 27.32 6.328 27.32 8.6C27.32 10.456 26.504 12.184 24.872 13.784C23.272 15.384 20.888 16.472 17.72 17.048V17.144ZM14.84 1.976C13.976 1.976 13.336 2.088 12.92 2.312C12.536 2.536 12.264 2.936 12.104 3.512C11.944 4.088 11.864 4.952 11.864 6.104V16.952H13.928C16.008 16.952 17.464 16.248 18.296 14.84C19.128 13.4 19.544 11.496 19.544 9.128C19.544 6.728 19.16 4.936 18.392 3.752C17.656 2.568 16.472 1.976 14.84 1.976ZM15.176 33.896C19.624 33.896 21.848 31.096 21.848 25.496C21.848 22.968 21.208 21.048 19.928 19.736C18.648 18.424 16.632 17.768 13.88 17.768H11.864V29.912C11.864 31.064 11.944 31.912 12.104 32.456C12.264 33 12.568 33.384 13.016 33.608C13.496 33.8 14.216 33.896 15.176 33.896ZM59.9218 30.968C60.3378 32.024 60.8178 32.792 61.3618 33.272C61.9058 33.752 62.4338 34.008 62.9458 34.04V35C61.0258 34.904 58.5938 34.856 55.6498 34.856C52.3858 34.856 49.9538 34.904 48.3538 35V34.04C49.5698 33.976 50.4338 33.832 50.9458 33.608C51.4578 33.352 51.7138 32.92 51.7138 32.312C51.7138 31.736 51.5218 30.968 51.1378 30.008L48.2578 22.136H37.7938L36.5458 25.448C35.6498 27.752 35.2018 29.528 35.2018 30.776C35.2018 31.96 35.5538 32.792 36.2578 33.272C36.9938 33.72 38.0658 33.976 39.4738 34.04V35C37.2978 34.904 35.3138 34.856 33.5218 34.856C32.0498 34.856 30.8338 34.904 29.8737 35V34.04C31.4418 33.752 32.8178 32.072 34.0018 29L44.9458 0.919998C45.2978 0.951998 45.8578 0.967998 46.6258 0.967998C47.3938 0.967998 47.9378 0.951998 48.2578 0.919998L59.9218 30.968ZM47.9218 21.176L43.1698 8.216L38.1778 21.176H47.9218ZM95.8479 32.888C94.9839 33.88 94.0559 34.584 93.0639 35C92.0719 35.448 90.8719 35.672 89.4639 35.672C87.6079 35.672 86.1359 35.288 85.0479 34.52C83.9919 33.72 83.3039 32.376 82.9839 30.488L82.1199 25.688C81.7039 23.352 81.1919 21.64 80.5839 20.552C80.0079 19.432 79.0319 18.872 77.6559 18.872H74.5359V29.912C74.5359 31.128 74.6159 32.008 74.7759 32.552C74.9679 33.096 75.3039 33.464 75.7839 33.656C76.2639 33.848 77.0479 33.976 78.1359 34.04V35C76.4079 34.904 73.9919 34.856 70.8879 34.856C67.4639 34.856 64.9359 34.904 63.3039 35V34.04C64.3599 33.976 65.1279 33.848 65.6079 33.656C66.1199 33.464 66.4559 33.096 66.6159 32.552C66.8079 32.008 66.9039 31.128 66.9039 29.912V6.104C66.9039 4.888 66.8079 4.008 66.6159 3.464C66.4559 2.92 66.1199 2.552 65.6079 2.36C65.1279 2.168 64.3599 2.04 63.3039 1.976V1.016C64.9359 1.112 67.3679 1.16 70.5999 1.16L75.9279 1.112C76.5679 1.08 77.3039 1.064 78.1359 1.064C82.5519 1.064 85.8639 1.784 88.0719 3.224C90.3119 4.664 91.4319 6.728 91.4319 9.416C91.4319 11.688 90.5999 13.688 88.9359 15.416C87.2719 17.144 84.5199 18.232 80.6799 18.68C83.5599 18.936 85.7039 19.56 87.1119 20.552C88.5199 21.544 89.4319 23.032 89.8479 25.016L90.9519 29.96C91.2079 31.24 91.4959 32.136 91.8159 32.648C92.1679 33.16 92.6479 33.416 93.2559 33.416C93.6399 33.384 93.9599 33.288 94.2159 33.128C94.5039 32.968 94.8239 32.696 95.1759 32.312L95.8479 32.888ZM77.5119 1.976C76.6479 1.976 76.0079 2.088 75.5919 2.312C75.2079 2.536 74.9359 2.936 74.7759 3.512C74.6159 4.088 74.5359 4.952 74.5359 6.104V17.912H76.5999C79.2239 17.912 81.0159 17.224 81.9759 15.848C82.9679 14.44 83.4639 12.472 83.4639 9.944C83.4639 7.32 82.9999 5.336 82.0719 3.992C81.1439 2.648 79.6239 1.976 77.5119 1.976ZM124.234 30.968C124.65 32.024 125.13 32.792 125.674 33.272C126.218 33.752 126.746 34.008 127.258 34.04V35C125.338 34.904 122.906 34.856 119.962 34.856C116.698 34.856 114.266 34.904 112.666 35V34.04C113.882 33.976 114.746 33.832 115.258 33.608C115.77 33.352 116.026 32.92 116.026 32.312C116.026 31.736 115.834 30.968 115.45 30.008L112.57 22.136H102.106L100.858 25.448C99.9623 27.752 99.5143 29.528 99.5143 30.776C99.5143 31.96 99.8663 32.792 100.57 33.272C101.306 33.72 102.378 33.976 103.786 34.04V35C101.61 34.904 99.6263 34.856 97.8343 34.856C96.3623 34.856 95.1463 34.904 94.1862 35V34.04C95.7543 33.752 97.1303 32.072 98.3143 29L109.258 0.919998C109.61 0.951998 110.17 0.967998 110.938 0.967998C111.706 0.967998 112.25 0.951998 112.57 0.919998L124.234 30.968ZM112.234 21.176L107.482 8.216L102.49 21.176H112.234ZM154.457 1.016C154.233 4.056 154.121 6.776 154.121 9.176C154.121 10.68 154.169 11.896 154.265 12.824H153.161C152.393 8.888 151.337 6.12 149.993 4.52C148.681 2.92 146.873 2.12 144.569 2.12H143.465V29.528C143.465 30.872 143.593 31.848 143.849 32.456C144.137 33.064 144.617 33.48 145.289 33.704C145.993 33.896 147.097 34.008 148.601 34.04V35C144.569 34.904 141.529 34.856 139.481 34.856C137.465 34.856 134.537 34.904 130.697 35V34.04C132.201 34.008 133.289 33.896 133.961 33.704C134.665 33.48 135.145 33.064 135.401 32.456C135.689 31.848 135.833 30.872 135.833 29.528V2.12H134.777C133.241 2.12 131.929 2.456 130.841 3.128C129.785 3.8 128.873 4.92 128.105 6.488C127.337 8.024 126.681 10.136 126.137 12.824H125.033C125.129 11.896 125.177 10.68 125.177 9.176C125.177 6.776 125.065 4.056 124.841 1.016C127.753 1.112 132.697 1.16 139.673 1.16C146.649 1.16 151.577 1.112 154.457 1.016ZM172.167 1.976C171.079 2.04 170.295 2.168 169.815 2.36C169.335 2.552 168.999 2.92 168.807 3.464C168.647 4.008 168.567 4.888 168.567 6.104V29.912C168.567 31.128 168.647 32.008 168.807 32.552C168.999 33.096 169.335 33.464 169.815 33.656C170.295 33.848 171.079 33.976 172.167 34.04V35C170.439 34.904 168.023 34.856 164.919 34.856C161.495 34.856 158.967 34.904 157.335 35V34.04C158.391 33.976 159.159 33.848 159.639 33.656C160.151 33.464 160.487 33.096 160.647 32.552C160.839 32.008 160.935 31.128 160.935 29.912V6.104C160.935 4.888 160.839 4.008 160.647 3.464C160.487 2.92 160.151 2.552 159.639 2.36C159.159 2.168 158.391 2.04 157.335 1.976V1.016C158.967 1.112 161.495 1.16 164.919 1.16C168.023 1.16 170.439 1.112 172.167 1.016V1.976ZM201.686 27.704C201.686 30.648 201.798 33.08 202.022 35C199.846 34.904 196.182 34.856 191.03 34.856C184.054 34.856 178.838 34.904 175.382 35V34.04C176.438 33.976 177.206 33.848 177.686 33.656C178.198 33.464 178.534 33.096 178.694 32.552C178.886 32.008 178.982 31.128 178.982 29.912V6.104C178.982 4.888 178.886 4.008 178.694 3.464C178.534 2.92 178.198 2.552 177.686 2.36C177.206 2.168 176.438 2.04 175.382 1.976V1.016C178.838 1.112 184.054 1.16 191.03 1.16C195.734 1.16 199.078 1.112 201.062 1.016C200.838 3.672 200.726 6.04 200.726 8.12C200.726 9.528 200.774 10.616 200.87 11.384H199.766C199.286 7.96 198.422 5.56 197.174 4.184C195.926 2.808 194.166 2.12 191.894 2.12H189.926C188.934 2.12 188.214 2.2 187.766 2.36C187.318 2.52 187.014 2.84 186.854 3.32C186.694 3.768 186.614 4.504 186.614 5.528V17.432H188.15C189.846 17.432 191.126 16.808 191.99 15.56C192.886 14.312 193.51 12.824 193.862 11.096H194.966C194.87 12.44 194.822 13.944 194.822 15.608V17.912C194.822 19.544 194.918 21.816 195.11 24.728H194.006C193.334 20.504 191.382 18.392 188.15 18.392H186.614V30.488C186.614 31.512 186.694 32.264 186.854 32.744C187.014 33.192 187.318 33.496 187.766 33.656C188.214 33.816 188.934 33.896 189.926 33.896H192.278C194.55 33.896 196.374 33.128 197.75 31.592C199.158 30.024 200.15 27.384 200.726 23.672H201.83C201.734 24.728 201.686 26.072 201.686 27.704Z" fill="white"/>
</svg>
